PathFileType	4	(X/Y/Z)	 s11c0102.trc
DataRate	CameraRate	NumFrames	NumMarkers	Units	OrigDataRate	OrigDataStartFrame	OrigNumFrames
200	200	4	48	mm	200	751	2000
Frame#	Time	racr			lacr			c7			jug			rlel			rdr			llel			ldr			s2			lic			ric			lasi			rasi			rpsi			lpsi			rgt			lgt			rth1			rth2			rth3			rth4			rlfc			rmfc			rsh1			rsh2			rsh3			rsh4			rlmal			rcal			rtoe			rmt5			lth1			lth2			lth4			lth3			llfc			lmfc			llmal			lcal			lmt5			lsh1			lsh2			lsh3			lsh4			ltoe			SBIKE			LBIKE			RBIKE			
		X1	Y1	Z1	X2	Y2	Z2	X3	Y3	Z3	X4	Y4	Z4	X5	Y5	Z5	X6	Y6	Z6	X7	Y7	Z7	X8	Y8	Z8	X9	Y9	Z9	X10	Y10	Z10	X11	Y11	Z11	X12	Y12	Z12	X13	Y13	Z13	X14	Y14	Z14	X15	Y15	Z15	X16	Y16	Z16	X17	Y17	Z17	X18	Y18	Z18	X19	Y19	Z19	X20	Y20	Z20	X21	Y21	Z21	X22	Y22	Z22	X23	Y23	Z23	X24	Y24	Z24	X25	Y25	Z25	X26	Y26	Z26	X27	Y27	Z27	X28	Y28	Z28	X29	Y29	Z29	X30	Y30	Z30	X31	Y31	Z31	X32	Y32	Z32	X33	Y33	Z33	X34	Y34	Z34	X35	Y35	Z35	X36	Y36	Z36	X37	Y37	Z37	X38	Y38	Z38	X39	Y39	Z39	X40	Y40	Z40	X41	Y41	Z41	X42	Y42	Z42	X43	Y43	Z43	X44	Y44	Z44	X45	Y45	Z45	X46	Y46	Z46	X47	Y47	Z47	X48	Y48	Z48	
751	3.7550	506.660633	1343.773443	-40.813806	544.528211	1355.277178	-321.501317	475.626506	1422.905689	-188.976782	474.156805	1236.731435	-207.929905	551.318812	1098.884815	89.558639	767.166893	937.632867	-25.397535	555.675077	1119.196801	-526.400692	792.347796	925.326234	-436.460358	-95.697974	1210.968021	-297.843015	146.523809	1219.346819	-466.365580	72.734880	1241.879212	-62.276750	175.350838	1150.397199	-436.455440	107.167093	1191.424014	-108.805582	-65.597708	1289.445437	-248.178632	-48.915570	1274.796925	-338.582772	63.198582	1129.989821	-45.513444	46.723002	1071.558271	-474.258997	201.613721	1088.824589	-37.443529	291.089076	1091.767169	-40.156719	369.006850	1051.724667	-44.741867	298.454034	1126.284886	-52.749444	473.986399	1028.530859	-53.387276	495.508581	1007.998403	-188.603762	414.579610	887.982443	-51.763168	391.665863	804.448511	-70.661921	330.478367	742.860542	-76.735097	418.226593	794.577073	-98.592224	244.535989	627.603340	-93.798790	184.662253	644.481163	-144.643984	406.653121	462.152906	-135.866863	332.469963	479.328355	-68.575713	121.501074	943.603211	-490.355684	176.936263	878.698184	-484.170525	210.653181	893.711666	-480.374303	192.785683	791.149635	-470.332565	248.679040	666.594595	-440.100184	262.484148	662.840921	-311.824139	93.776912	261.425551	-417.179431	36.069873	218.748372	-380.643787	236.921278	158.294776	-444.221073	203.988655	551.233885	-459.672469	196.966950	466.870969	-442.373304	148.582640	393.338102	-438.263003	226.216458	460.629741	-418.797956	332.450892	178.233938	-374.784448	-204.935522	955.781451	-264.607807	1.317487	82.556002	-461.214748	-15.225788	81.510639	-62.789676	
752	3.7600	507.947317	1341.346452	-41.166980	544.638124	1352.213430	-318.750720	476.371071	1421.022330	-188.129672	473.631495	1234.684247	-205.315096	550.911692	1097.878298	90.365757	766.913465	937.537971	-25.153874	556.464229	1119.118280	-526.856352	792.177883	925.151881	-436.764463	-95.758789	1213.549285	-298.877742	147.106780	1219.836704	-466.572481	71.198256	1244.169218	-62.690967	175.456956	1150.367896	-436.720467	104.987941	1192.871561	-107.689793	-65.372215	1292.057082	-249.624291	-48.461772	1277.119587	-339.405982	60.671106	1132.364305	-45.220517	45.957119	1072.379322	-475.031616	199.064024	1091.177269	-37.675432	288.456992	1093.300490	-40.597673	366.118712	1052.532801	-45.287841	296.043393	1127.695249	-53.205254	471.140490	1029.645800	-54.041318	493.057662	1008.836667	-189.205411	415.216332	886.581051	-51.776859	393.311370	802.732092	-70.421805	332.953673	740.178138	-76.139564	419.842501	793.094717	-98.475000	249.052541	623.640294	-92.933951	187.557910	637.398560	-144.050078	417.178768	464.812425	-135.132346	342.225180	478.738054	-67.745296	121.263878	944.702387	-491.034526	177.415754	880.543118	-485.199315	210.944197	895.785648	-481.838502	194.447984	792.979652	-471.625029	250.874297	668.795481	-441.762454	266.250357	665.251780	-313.674418	86.573895	267.598004	-417.161108	28.118798	226.730491	-380.724714	227.152737	160.394361	-444.487767	203.510833	554.416974	-461.044685	194.550143	470.281745	-443.399483	144.451284	397.947070	-438.900568	223.809318	463.369136	-420.012016	323.491353	177.613503	-375.397269	-205.006566	955.692723	-264.566726	1.315029	82.556433	-461.212262	-15.238912	81.507021	-62.762058	
753	3.7650	509.134757	1339.012348	-41.661522	545.033915	1348.906284	-316.591640	477.074016	1419.173238	-187.437368	473.116358	1232.688967	-202.772684	550.763189	1096.739159	90.817751	766.612650	937.391598	-25.051145	556.907205	1118.743391	-527.360345	792.035108	925.002868	-436.974044	-95.733843	1215.810599	-299.736049	147.395334	1220.086708	-466.607586	69.924354	1246.214827	-63.111627	175.304586	1150.460597	-436.930849	103.262308	1193.802691	-106.883501	-65.328909	1294.755058	-250.574496	-48.159879	1279.384295	-340.084632	58.223779	1134.610382	-44.984734	45.216518	1073.199540	-475.802159	196.498802	1092.205979	-38.068659	285.777824	1093.912414	-41.117630	363.084719	1052.532731	-45.556955	293.592834	1128.462710	-53.695528	469.245867	1028.663680	-55.161682	490.215334	1007.829637	-189.975617	415.449013	883.825791	-51.578009	394.435922	799.673684	-70.088106	334.826173	736.455977	-75.400443	420.928218	790.252598	-98.253865	252.841766	618.104813	-92.286881	190.524124	629.682261	-142.993662	427.182616	466.787317	-134.300768	351.770169	477.307016	-66.876667	121.208091	945.980017	-491.553164	178.199238	882.556028	-485.975183	211.611289	898.322418	-483.044934	196.504840	795.224563	-472.938975	253.748665	671.132035	-443.415865	270.360556	667.884853	-315.761428	79.622833	274.424282	-417.222203	20.791138	235.120933	-380.365115	217.727609	163.273538	-444.797894	203.458186	557.983875	-462.401725	192.557084	474.169356	-444.368042	140.812670	403.023365	-439.369483	221.791669	466.636016	-421.114374	314.759844	177.496200	-376.012431	-205.014155	955.649761	-264.502392	1.301374	82.559036	-461.198109	-15.255325	81.501038	-62.773966	
754	3.7700	509.788273	1336.451748	-42.620097	545.382120	1345.377344	-314.642249	477.785520	1417.371250	-186.945112	471.811678	1230.798199	-200.529046	550.800191	1095.509787	91.086665	766.256372	937.325256	-25.090680	557.292772	1118.145002	-528.134882	791.989731	924.872324	-437.128082	-95.014104	1218.264058	-302.124545	147.490735	1220.464434	-466.792783	68.961936	1248.038539	-63.573249	174.889148	1150.737188	-437.135020	101.692543	1194.442371	-106.513471	-65.143441	1297.141303	-251.544241	-48.051124	1281.571588	-340.663656	55.963083	1136.494177	-44.866143	44.467097	1074.006045	-476.486197	193.578735	1093.425150	-38.006421	283.169126	1093.842028	-41.612714	359.990524	1051.556148	-45.914212	291.247867	1128.331372	-54.169656	468.603219	1025.296147	-55.938246	487.023051	1005.179108	-190.581404	415.296187	879.827737	-51.167410	395.188669	795.410456	-69.666719	336.402076	731.510042	-74.715795	421.769060	786.382696	-97.748196	256.218629	611.498830	-91.438159	193.112455	620.385362	-141.908173	436.641118	468.382559	-133.253611	360.844713	475.132598	-65.771220	121.389986	947.295879	-491.753660	179.298090	884.818517	-486.490768	212.410803	901.012953	-483.802210	198.999511	797.686170	-474.243621	257.108591	673.996062	-445.026548	274.881387	670.834834	-317.801794	73.474797	281.888488	-417.055073	13.987166	244.265715	-380.032686	208.578677	166.697465	-444.958535	203.799181	562.026516	-463.613363	191.001416	478.501021	-445.179334	137.611620	408.596125	-439.766531	220.234620	470.353198	-422.167793	306.197481	177.882271	-376.551774	-205.026395	955.633393	-264.493452	1.299597	82.574266	-461.215747	-15.255846	81.492225	-62.773301	
